<?xml version='1.0' encoding='utf-8'?>
<svg xmlns="http://www.w3.org/2000/svg" width="1920" height="1080" viewBox="0 0 1920 1080" data-theme="dark" data-semantic-intent="uncertain_compare" data-relation-type="comparison" data-site-visual-identity="signal-cobalt">
  <style>
        @font-face {
            font-family: 'Inter';
            src: url('assets/fonts/Inter-Regular.ttf') format('truetype');
            font-weight: 400;
            font-style: normal;
            font-display: swap;
        }
        @font-face {
            font-family: 'Inter';
            src: url('assets/fonts/Inter-Bold.ttf') format('truetype');
            font-weight: 600;
            font-style: normal;
            font-display: swap;
        }
        @font-face {
            font-family: 'Inter';
            src: url('assets/fonts/Inter-Bold.ttf') format('truetype');
            font-weight: 800;
            font-style: normal;
            font-display: swap;
        }
        
:root {
    --background: #0f172a;
    --panel: #1e293b;
    --primary-text: #f1f5f9;
    --muted-text: #94a3b8;
    --inverse-text: #0f172a;
    --border: #334155;
    --shadow-color: #000000;
    --icon-pad-bg: #1e293b;
    --art-glow: #7dd3fc;
    --art-glow-opacity: 0.18;
    --art-sheen: #ffffff;
    --art-sheen-opacity: 0.18;
    --art-shadow: #000000;
    --art-shadow-opacity: 0.28;
    --art-muted-line: #64748b;
    --art-panel-tint: #1e293b;
    --semantic-risk: #f87171;
    --semantic-warning: #fb923c;
    --semantic-uncertain: #fbbf24;
    --semantic-evidence: #60a5fa;
    --semantic-claim: #c084fc;
    --semantic-positive: #4ade80;
    --semantic-outcome: #22d3ee;
    --font-family: 'Inter', 'Segoe UI', 'Kalam', Roboto, Helvetica, Arial, sans-serif;
    --radius-xl: 16px;
    --font-family-headline: 'Segoe UI Variable Display', 'Aptos Display', 'Inter', 'Segoe UI', Helvetica, Arial, sans-serif;
    --font-family-body: 'Segoe UI Variable Text', 'Aptos', 'Inter', 'Segoe UI', Helvetica, Arial, sans-serif;
    --font-heading: var(--font-family-headline);
    --font-body: var(--font-family-body);
    --font-size-h1: 64px;
    --font-size-h2: 42px;
    --font-size-h3: 29px;
    --font-size-body: 21px;
    --font-size-caption: 17px;
    --secondary-text: var(--muted-text);
    --panel-border: var(--border);
    --font-weight-normal: 400;
    --font-weight-medium: 500;
    --font-weight-semibold: 600;
    --font-weight-bold: 700;
    --spacing-gutter-pct: 0.07;
    --spacing-top-pct: 0.15;
    --spacing-bottom-pct: 0.07;
    --spacing-title-y-pct: 0.055;
    --accent-1: #93c5fd;
    --accent-2: #60a5fa;
    --accent-3: #818cf8;
    --accent-4: #a78bfa;
    --accent-5: #38bdf8;
    --accent-6: #fb923c;
}
:root[data-theme="dark"] {
    --background: #0f172a;
    --panel: #1e293b;
    --primary-text: #f1f5f9;
    --muted-text: #94a3b8;
    --inverse-text: #0f172a;
    --border: #334155;
    --shadow-color: #000000;
    --icon-pad-bg: #1e293b;
    --art-glow: #7dd3fc;
    --art-glow-opacity: 0.18;
    --art-sheen: #ffffff;
    --art-sheen-opacity: 0.18;
    --art-shadow: #000000;
    --art-shadow-opacity: 0.28;
    --art-muted-line: #64748b;
    --art-panel-tint: #1e293b;
    --semantic-risk: #f87171;
    --semantic-warning: #fb923c;
    --semantic-uncertain: #fbbf24;
    --semantic-evidence: #60a5fa;
    --semantic-claim: #c084fc;
    --semantic-positive: #4ade80;
    --semantic-outcome: #22d3ee;
    --accent-1: #93c5fd;
    --accent-2: #60a5fa;
    --accent-3: #818cf8;
    --accent-4: #a78bfa;
    --accent-5: #38bdf8;
    --accent-6: #fb923c;
}
:root[data-theme="light"] {
    --background: #f8fafc;
    --panel: #ffffff;
    --primary-text: #0f172a;
    --muted-text: #64748b;
    --inverse-text: #ffffff;
    --border: #e2e8f0;
    --shadow-color: #000000;
    --icon-pad-bg: #1e293b;
    --art-glow: #0891b2;
    --art-glow-opacity: 0.10;
    --art-sheen: #ffffff;
    --art-sheen-opacity: 0.34;
    --art-shadow: #0f172a;
    --art-shadow-opacity: 0.14;
    --art-muted-line: #94a3b8;
    --art-panel-tint: #f1f5f9;
    --semantic-risk: #b91c1c;
    --semantic-warning: #c2410c;
    --semantic-uncertain: #a16207;
    --semantic-evidence: #1d4ed8;
    --semantic-claim: #6d28d9;
    --semantic-positive: #15803d;
    --semantic-outcome: #0e7490;
    --accent-1: #1d4ed8;
    --accent-2: #2563eb;
    --accent-3: #4f46e5;
    --accent-4: #6d28d9;
    --accent-5: #0369a1;
    --accent-6: #c2410c;
}</style>
  <rect x="0" y="0" width="1.92E+3" height="1.08E+3" fill="#252a34" stroke="none" id="programmatic_background"/>
  <line id="HEADER_DECOR" x1="960.0" x2="1080.0" y1="85.0" y2="85.0" stroke="var(--accent-1)" stroke-width="6" stroke-linecap="round"/>
  <defs>
    <pattern id="svg56adbb0d-napkin-hatch" patternUnits="userSpaceOnUse" width="12" height="12">
      <path d="M -3 12 L 12 -3 M 0 15 L 15 0" fill="none" stroke="var(--primary-text)" stroke-width="1" stroke-opacity="0.05"/>
    </pattern>
    <filter id="svg56adbb0d-shadow" x="-30%" y="-30%" width="160%" height="160%">
      <feDropShadow dx="0" dy="2" stdDeviation="3" flood-color="#000000" flood-opacity="0.08"/>
      <feDropShadow dx="0" dy="6" stdDeviation="10" flood-color="#000000" flood-opacity="0.12"/>
    </filter>
    <marker id="svg56adbb0d-arrowhead" markerWidth="10" markerHeight="10" refX="9" refY="5" orient="auto">
      <path d="M 0 0 L 10 5 L 0 10 Z" fill="var(--accent-1)"/>
    </marker>
    <filter id="svg56adbb0d-text-glow" x="-20%" y="-20%" width="140%" height="140%">
      <feDropShadow dx="0" dy="0" stdDeviation="2" flood-color="#000000" flood-opacity="0.4"/>
    </filter>
    <radialGradient id="svg56adbb0d-universal-edge-vignette" cx="50%" cy="50%" r="72%">
      <stop offset="0%" stop-color="var(--background)" stop-opacity="0"/>
      <stop offset="72%" stop-color="var(--background)" stop-opacity="0.12"/>
      <stop offset="100%" stop-color="var(--primary-text)" stop-opacity="0.08"/>
    </radialGradient>
    <linearGradient id="svg56adbb0d-universal-surface-sheen" x1="0%" y1="0%" x2="100%" y2="100%">
      <stop offset="0%" stop-color="var(--art-sheen)" stop-opacity="var(--art-sheen-opacity)"/>
      <stop offset="46%" stop-color="var(--art-sheen)" stop-opacity="0.035"/>
      <stop offset="100%" stop-color="var(--art-panel-tint)" stop-opacity="0.14"/>
    </linearGradient>
    <radialGradient id="svg56adbb0d-universal-icon-aura" cx="50%" cy="42%" r="64%">
      <stop offset="0%" stop-color="var(--art-glow)" stop-opacity="var(--art-glow-opacity)"/>
      <stop offset="100%" stop-color="var(--background)" stop-opacity="0"/>
    </radialGradient>
    <linearGradient id="svg56adbb0d-card-panel-sheen" x1="0%" y1="0%" x2="100%" y2="100%">
      <stop offset="0%" stop-color="var(--inverse-text)" stop-opacity="0.20"/>
      <stop offset="48%" stop-color="var(--inverse-text)" stop-opacity="0.04"/>
      <stop offset="100%" stop-color="var(--background)" stop-opacity="0.16"/>
    </linearGradient>
    <radialGradient id="svg56adbb0d-card-icon-glow" cx="50%" cy="35%" r="62%">
      <stop offset="0%" stop-color="var(--inverse-text)" stop-opacity="0.22"/>
      <stop offset="100%" stop-color="var(--background)" stop-opacity="0"/>
    </radialGradient>
  </defs>
  <rect width="100%" height="100%" fill="var(--background)" id="CANVAS_BG"/>
  <rect width="100%" height="100%" fill="url(#svg56adbb0d-napkin-hatch)"/>
  <rect id="UNIVERSAL_EDGE_VIGNETTE" width="100%" height="100%" fill="url(#svg56adbb0d-universal-edge-vignette)" opacity="0.62"/>
  <text id="TITLE" x="960.0" y="59" font-size="48" font-weight="700" fill="#f1f5f9" text-anchor="middle" style="font-size: 69px; font-family: 'Segoe UI Variable Display', 'Aptos Display', 'Inter', 'Segoe UI', Helvetica, Arial, sans-serif; font-weight: 800; font-kerning: normal; font-feature-settings: &quot;kern&quot; 1, &quot;liga&quot; 1; letter-spacing:-1.2px;" data-final-font-size="69">
    <tspan x="960.0" dy="70.47px">NUFORC Data: Surface vs. Underlying Reality</tspan>
  </text>
  <rect id="TITLE_FRAME" x="134" y="25" width="1652" height="70" fill="none"/>
  <g id="DIAGRAM_MAIN">
    <rect id="ITEM_1_BG" x="485" y="170" width="480" height="410" rx="16" fill="var(--semantic-uncertain)" stroke="var(--accent-1)" stroke-width="2" filter="url(#svg56adbb0d-shadow)" fill-opacity="0.4"/>
    <rect x="485" y="170" width="480" height="410" rx="16" fill="url(#svg56adbb0d-card-panel-sheen)" opacity="0.88"/>
    <rect x="485" y="186" width="460" height="12" fill="var(--accent-1)"/>
    <rect id="ITEM_1_HEAD_FRAME" x="500" y="288" width="450" height="96" fill="none"/>
    <rect id="ITEM_1_BODY_FRAME" x="500" y="382" width="450" height="168" fill="none"/>
    <circle id="ITEM_1_PAD" cx="715" cy="231" r="55" fill="var(--icon-pad-bg)" stroke="var(--semantic-uncertain)" opacity="1" fill-opacity="0.9" stroke-width="2" stroke-opacity="0.72" data-badge-layer="pad"/>
    <circle cx="715" cy="231" r="44" fill="none" stroke="var(--accent-1)" stroke-width="3" stroke-dasharray="6 4" display="none" data-suppressed-decoration="redundant-badge-ring"/>
    <circle id="ITEM_1_BADGE" cx="715" cy="231" r="43" fill="var(--accent-1)" stroke="var(--background)" stroke-width="4" fill-opacity="0.35" opacity="0.85" stroke-opacity="0.75"/>
    <g id="ITEM_1_ICON" transform="translate(682, 198)" data-icon-size="66" stroke-linecap="round" stroke-linejoin="round" data-badge-treatment="clean">
      <g transform="translate(-12.759999999999998,-12.759999999999996) scale(2.86)">
        <rect x="1" y="5" width="30" height="22" rx="1.5" fill="#B4ACBC"/>
        <rect x="2" y="7" width="28" height="18" rx="1" fill="#CDC4D6"/>
        <path d="M30 23.4001L17.029 15.6175C16.3956 15.2375 15.6044 15.2375 14.971 15.6175L2 23.4001V25.0001C2 25.5524 2.44771 26.0001 3 26.0001L29 26.0001C29.5523 26.0001 30 25.5524 30 25.0001V23.4001Z" fill="#E1D8EC"/>
        <path d="M2 9.76619V8H30V9.76619L17.5435 17.2401C16.5934 17.8101 15.4066 17.8101 14.4565 17.2401L2 9.76619Z" fill="#998EA4"/>
        <path d="M2 8.6V7C2 6.44772 2.44772 6 3 6H29C29.5523 6 30 6.44772 30 7V8.6L17.029 16.3826C16.3956 16.7626 15.6044 16.7626 14.971 16.3826L2 8.6Z" fill="#F3EEF8"/>
      </g>
    </g>
    <text id="ITEM_1_HEAD" x="725.0" y="288.0" font-weight="700" font-size="26" fill="var(--primary-text)" text-anchor="middle" data-bg-id="ITEM_1_BG" fill-opacity="1.0" stroke="none" style="font-size: 31px; font-family: 'Segoe UI Variable Display', 'Aptos Display', 'Inter', 'Segoe UI', Helvetica, Arial, sans-serif; font-weight: 700; font-kerning: normal; font-feature-settings: &quot;kern&quot; 1, &quot;liga&quot; 1; letter-spacing:-0.4px;" data-final-font-size="31">
      <tspan x="725.0" dy="56.52px">Submission Date</tspan>
    </text>
    <text id="ITEM_1_BODY" x="725.0" y="382.0" font-size="21" fill="var(--primary-text)" text-anchor="middle" data-bg-id="ITEM_1_BG" style="font-size: 23px; font-family: 'Segoe UI Variable Text', 'Aptos', 'Inter', 'Segoe UI', Helvetica, Arial, sans-serif; font-weight: 400; font-kerning: normal; font-feature-settings: &quot;kern&quot; 1, &quot;liga&quot; 1;" data-final-font-size="23">
      <tspan x="725.0" dy="36.13px">The moment a witness decides to report</tspan>
      <tspan x="725.0" dy="26.45px">an experience, often triggered by news</tspan>
      <tspan x="725.0" dy="26.45px">or social media</tspan>
    </text>
    <rect id="ITEM_2_BG" x="975" y="170" width="480" height="410" rx="16" fill="var(--semantic-evidence)" stroke="var(--accent-2)" stroke-width="2" filter="url(#svg56adbb0d-shadow)" fill-opacity="0.4"/>
    <rect x="975" y="170" width="480" height="410" rx="16" fill="url(#svg56adbb0d-card-panel-sheen)" opacity="0.88"/>
    <rect x="975" y="186" width="460" height="12" fill="var(--accent-2)"/>
    <rect id="ITEM_2_HEAD_FRAME" x="990" y="288" width="450" height="96" fill="none"/>
    <rect id="ITEM_2_BODY_FRAME" x="990" y="382" width="450" height="168" fill="none"/>
    <circle id="ITEM_2_PAD" cx="1205" cy="231" r="55" fill="var(--icon-pad-bg)" stroke="var(--semantic-evidence)" opacity="1" fill-opacity="0.9" stroke-width="2" stroke-opacity="0.72" data-badge-layer="pad"/>
    <circle cx="1205" cy="231" r="44" fill="none" stroke="var(--accent-2)" stroke-width="3" stroke-dasharray="6 4" display="none" data-suppressed-decoration="redundant-badge-ring"/>
    <circle id="ITEM_2_BADGE" cx="1205" cy="231" r="43" fill="var(--accent-2)" stroke="var(--background)" stroke-width="4" fill-opacity="0.35" opacity="0.85" stroke-opacity="0.75"/>
    <g id="ITEM_2_ICON" transform="translate(1172, 198)" data-icon-size="66" stroke-linecap="round" stroke-linejoin="round" data-badge-treatment="clean">
      <g transform="translate(-15.59469026548673,-15.974336283185838) scale(3.0371681415929204)">
        <path d="M10.3535 3.06063C10.1582 2.86537 10.1582 2.54879 10.3535 2.35352C10.5487 2.15826 10.8653 2.15826 11.0606 2.35352L14.9497 6.24261L14.2426 6.94972L10.3535 3.06063Z" fill="#636363"/>
        <path d="M18.889 2.35348C19.0842 2.15822 19.4008 2.15822 19.5961 2.35348C19.7914 2.54874 19.7914 2.86532 19.5961 3.06058L15.707 6.94967L14.9999 6.24257L18.889 2.35348Z" fill="#636363"/>
        <path d="M11.0002 23.5L8.00024 23L6.46544 28.7279C6.31248 29.2987 6.65125 29.8855 7.22209 30.0385C7.73725 30.1765 8.2754 29.9141 8.48393 29.4232L11.0002 23.5Z" fill="#636363"/>
        <path d="M21.0002 23.5L24.0002 23L25.535 28.7279C25.688 29.2987 25.3492 29.8855 24.7784 30.0385C24.2632 30.1765 23.7251 29.9141 23.5165 29.4232L21.0002 23.5Z" fill="#636363"/>
        <path d="M3 9C3 7.34315 4.34315 6 6 6H26C27.6569 6 29 7.34315 29 9V22C29 23.6569 27.6569 25 26 25H6C4.34315 25 3 23.6569 3 22V9Z" fill="#9B9B9B"/>
        <circle cx="25.75" cy="13.25" r="1.25" fill="#CA0B4A"/>
        <circle cx="25.75" cy="9.25" r="1.25" fill="#636363"/>
        <path d="M6.5 11.5C6.5 10.3954 7.39543 9.5 8.5 9.5H20.5C21.6046 9.5 22.5 10.3954 22.5 11.5V19.5C22.5 20.6046 21.6046 21.5 20.5 21.5H8.5C7.39543 21.5 6.5 20.6046 6.5 19.5V11.5Z" fill="#83CBFF"/>
        <path d="M21 10C21.5523 10 22 10.4477 22 11V20C22 20.5523 21.5523 21 21 21H8C7.44772 21 7 20.5523 7 20V11C7 10.4477 7.44772 10 8 10H21ZM8 9C6.89543 9 6 9.89543 6 11V20C6 21.1046 6.89543 22 8 22H21C22.1046 22 23 21.1046 23 20V11C23 9.89543 22.1046 9 21 9H8Z" fill="#321B41"/>
      </g>
    </g>
    <text id="ITEM_2_HEAD" x="1215.0" y="288.0" font-weight="700" font-size="26" fill="var(--primary-text)" text-anchor="middle" data-bg-id="ITEM_2_BG" fill-opacity="1.0" stroke="none" style="font-size: 31px; font-family: 'Segoe UI Variable Display', 'Aptos Display', 'Inter', 'Segoe UI', Helvetica, Arial, sans-serif; font-weight: 700; font-kerning: normal; font-feature-settings: &quot;kern&quot; 1, &quot;liga&quot; 1; letter-spacing:-0.4px;" data-final-font-size="31">
      <tspan x="1215.0" dy="56.52px">Publicity Spikes</tspan>
    </text>
    <text id="ITEM_2_BODY" x="1215.0" y="382.0" font-size="21" fill="var(--primary-text)" text-anchor="middle" data-bg-id="ITEM_2_BG" style="font-size: 23px; font-family: 'Segoe UI Variable Text', 'Aptos', 'Inter', 'Segoe UI', Helvetica, Arial, sans-serif; font-weight: 400; font-kerning: normal; font-feature-settings: &quot;kern&quot; 1, &quot;liga&quot; 1;" data-final-font-size="23">
      <tspan x="1215.0" dy="36.13px">Apparent surges in data caused by</tspan>
      <tspan x="1215.0" dy="26.45px">documentaries, government hearings, or</tspan>
      <tspan x="1215.0" dy="26.45px">viral social media trends</tspan>
    </text>
    <rect id="ITEM_3_BG" x="485" y="600" width="480" height="410" rx="16" fill="var(--semantic-uncertain)" stroke="var(--accent-3)" stroke-width="2" filter="url(#svg56adbb0d-shadow)" fill-opacity="0.4"/>
    <rect x="485" y="600" width="480" height="410" rx="16" fill="url(#svg56adbb0d-card-panel-sheen)" opacity="0.88"/>
    <rect x="485" y="616" width="460" height="12" fill="var(--accent-3)"/>
    <rect id="ITEM_3_HEAD_FRAME" x="500" y="718" width="450" height="96" fill="none"/>
    <rect id="ITEM_3_BODY_FRAME" x="500" y="812" width="450" height="168" fill="none"/>
    <circle id="ITEM_3_PAD" cx="715" cy="661" r="55" fill="var(--icon-pad-bg)" stroke="var(--semantic-uncertain)" opacity="1" fill-opacity="0.9" stroke-width="2" stroke-opacity="0.72" data-badge-layer="pad"/>
    <circle cx="715" cy="661" r="44" fill="none" stroke="var(--accent-3)" stroke-width="3" stroke-dasharray="6 4" display="none" data-suppressed-decoration="redundant-badge-ring"/>
    <circle id="ITEM_3_BADGE" cx="715" cy="661" r="43" fill="var(--accent-3)" stroke="var(--background)" stroke-width="4" fill-opacity="0.35" opacity="0.85" stroke-opacity="0.75"/>
    <g id="ITEM_3_ICON" transform="translate(682, 628)" data-icon-size="66" stroke-linecap="round" stroke-linejoin="round" data-badge-treatment="clean">
      <g transform="translate(-13.535593220338981,-13.535593220338981) scale(3.877966101694915)" vector-effect="non-scaling-stroke" stroke-width="2.50" stroke-linecap="round" stroke-linejoin="round" stroke-opacity="1.0">
        <path d="M12 6v6l4 2" vector-effect="non-scaling-stroke" fill="none" stroke="#ffffff"/>
        <circle cx="12" cy="12" r="10" vector-effect="non-scaling-stroke" fill="none" stroke="#ffffff"/>
      </g>
    </g>
    <text id="ITEM_3_HEAD" x="725.0" y="718.0" font-weight="700" font-size="26" fill="var(--primary-text)" text-anchor="middle" data-bg-id="ITEM_3_BG" fill-opacity="1.0" stroke="none" style="font-size: 31px; font-family: 'Segoe UI Variable Display', 'Aptos Display', 'Inter', 'Segoe UI', Helvetica, Arial, sans-serif; font-weight: 700; font-kerning: normal; font-feature-settings: &quot;kern&quot; 1, &quot;liga&quot; 1; letter-spacing:-0.4px;" data-final-font-size="31">
      <tspan x="725.0" dy="56.52px">Event Date</tspan>
    </text>
    <text id="ITEM_3_BODY" x="725.0" y="812.0" font-size="21" fill="var(--primary-text)" text-anchor="middle" data-bg-id="ITEM_3_BG" style="font-size: 23px; font-family: 'Segoe UI Variable Text', 'Aptos', 'Inter', 'Segoe UI', Helvetica, Arial, sans-serif; font-weight: 400; font-kerning: normal; font-feature-settings: &quot;kern&quot; 1, &quot;liga&quot; 1;" data-final-font-size="23">
      <tspan x="725.0" dy="36.13px">The actual estimated time the witness</tspan>
      <tspan x="725.0" dy="26.45px">observed the phenomenon, which may be</tspan>
      <tspan x="725.0" dy="26.45px">months or years prior</tspan>
    </text>
    <rect id="ITEM_4_BG" x="975" y="600" width="480" height="410" rx="16" fill="var(--semantic-evidence)" stroke="var(--accent-4)" stroke-width="2" filter="url(#svg56adbb0d-shadow)" fill-opacity="0.4"/>
    <rect x="975" y="600" width="480" height="410" rx="16" fill="url(#svg56adbb0d-card-panel-sheen)" opacity="0.88"/>
    <rect x="975" y="616" width="460" height="12" fill="var(--accent-4)"/>
    <rect id="ITEM_4_HEAD_FRAME" x="990" y="718" width="450" height="96" fill="none"/>
    <rect id="ITEM_4_BODY_FRAME" x="990" y="812" width="450" height="168" fill="none"/>
    <circle id="ITEM_4_PAD" cx="1205" cy="661" r="55" fill="var(--icon-pad-bg)" stroke="var(--semantic-evidence)" opacity="1" fill-opacity="0.9" stroke-width="2" stroke-opacity="0.72" data-badge-layer="pad"/>
    <circle cx="1205" cy="661" r="44" fill="none" stroke="var(--accent-4)" stroke-width="3" stroke-dasharray="6 4" display="none" data-suppressed-decoration="redundant-badge-ring"/>
    <circle id="ITEM_4_BADGE" cx="1205" cy="661" r="43" fill="var(--accent-4)" stroke="var(--background)" stroke-width="4" fill-opacity="0.35" opacity="0.85" stroke-opacity="0.75"/>
    <g id="ITEM_4_ICON" transform="translate(1172, 628)" data-icon-size="66" stroke-linecap="round" stroke-linejoin="round" data-badge-treatment="clean">
      <g transform="translate(-13.535593220338981,-13.535593220338981) scale(3.877966101694915)" vector-effect="non-scaling-stroke" stroke-width="2.50" stroke-linecap="round" stroke-linejoin="round" stroke-opacity="1.0">
        <rect width="20" height="5" x="2" y="3" rx="1" vector-effect="non-scaling-stroke" fill="none" stroke="#ffffff"/>
        <path d="M4 8v11a2 2 0 0 0 2 2h12a2 2 0 0 0 2-2V8" vector-effect="non-scaling-stroke" fill="none" stroke="#ffffff"/>
        <path d="M10 12h4" vector-effect="non-scaling-stroke" fill="none" stroke="#ffffff"/>
      </g>
    </g>
    <text id="ITEM_4_HEAD" x="1215.0" y="718.0" font-weight="700" font-size="26" fill="var(--primary-text)" text-anchor="middle" data-bg-id="ITEM_4_BG" fill-opacity="1.0" stroke="none" style="font-size: 31px; font-family: 'Segoe UI Variable Display', 'Aptos Display', 'Inter', 'Segoe UI', Helvetica, Arial, sans-serif; font-weight: 700; font-kerning: normal; font-feature-settings: &quot;kern&quot; 1, &quot;liga&quot; 1; letter-spacing:-0.4px;" data-final-font-size="31">
      <tspan x="1215.0" dy="56.52px">Delayed Backlogs</tspan>
    </text>
    <text id="ITEM_4_BODY" x="1215.0" y="812.0" font-size="21" fill="var(--primary-text)" text-anchor="middle" data-bg-id="ITEM_4_BG" style="font-size: 23px; font-family: 'Segoe UI Variable Text', 'Aptos', 'Inter', 'Segoe UI', Helvetica, Arial, sans-serif; font-weight: 400; font-kerning: normal; font-feature-settings: &quot;kern&quot; 1, &quot;liga&quot; 1;" data-final-font-size="23">
      <tspan x="1215.0" dy="36.13px">Historical observations that remain</tspan>
      <tspan x="1215.0" dy="26.45px">'hidden' until a news story motivates</tspan>
      <tspan x="1215.0" dy="26.45px">the witness to submit them</tspan>
    </text>
  </g>
  <text id="SOURCE_NOTE" x="134.0" y="1058.0" fill="var(--muted-text)" opacity="0.88" style="font-family: var(--font-family); font-size: 20px;">Source: Introduction</text>
  <text id="EDITORIAL_NOTE" x="1786.0" y="1058.0" fill="var(--semantic-uncertain)" opacity="0.92" style="font-family: var(--font-family); font-size: 20px;" text-anchor="end">Interpretations remain disputed; wording reflects source uncertainty.</text>
</svg>
