<?xml version='1.0' encoding='utf-8'?>
<svg xmlns="http://www.w3.org/2000/svg" width="1920" height="1080" viewBox="0 0 1920 1080" data-theme="light" data-semantic-intent="taxonomy_list" data-relation-type="taxonomy" data-site-visual-identity="signal-cobalt">
  <style>
        @font-face {
            font-family: 'Inter';
            src: url('assets/fonts/Inter-Regular.ttf') format('truetype');
            font-weight: 400;
            font-style: normal;
            font-display: swap;
        }
        @font-face {
            font-family: 'Inter';
            src: url('assets/fonts/Inter-Bold.ttf') format('truetype');
            font-weight: 600;
            font-style: normal;
            font-display: swap;
        }
        @font-face {
            font-family: 'Inter';
            src: url('assets/fonts/Inter-Bold.ttf') format('truetype');
            font-weight: 800;
            font-style: normal;
            font-display: swap;
        }
        
:root {
    --background: #f8fafc;
    --panel: #ffffff;
    --primary-text: #0f172a;
    --muted-text: #64748b;
    --inverse-text: #ffffff;
    --border: #e2e8f0;
    --shadow-color: #000000;
    --icon-pad-bg: #1e293b;
    --art-glow: #0891b2;
    --art-glow-opacity: 0.10;
    --art-sheen: #ffffff;
    --art-sheen-opacity: 0.34;
    --art-shadow: #0f172a;
    --art-shadow-opacity: 0.14;
    --art-muted-line: #94a3b8;
    --art-panel-tint: #f1f5f9;
    --semantic-risk: #b91c1c;
    --semantic-warning: #c2410c;
    --semantic-uncertain: #a16207;
    --semantic-evidence: #1d4ed8;
    --semantic-claim: #6d28d9;
    --semantic-positive: #15803d;
    --semantic-outcome: #0e7490;
    --font-family: 'Inter', 'Segoe UI', 'Kalam', Roboto, Helvetica, Arial, sans-serif;
    --radius-xl: 16px;
    --font-family-headline: 'Segoe UI Variable Display', 'Aptos Display', 'Inter', 'Segoe UI', Helvetica, Arial, sans-serif;
    --font-family-body: 'Segoe UI Variable Text', 'Aptos', 'Inter', 'Segoe UI', Helvetica, Arial, sans-serif;
    --font-heading: var(--font-family-headline);
    --font-body: var(--font-family-body);
    --font-size-h1: 64px;
    --font-size-h2: 42px;
    --font-size-h3: 29px;
    --font-size-body: 21px;
    --font-size-caption: 17px;
    --secondary-text: var(--muted-text);
    --panel-border: var(--border);
    --font-weight-normal: 400;
    --font-weight-medium: 500;
    --font-weight-semibold: 600;
    --font-weight-bold: 700;
    --spacing-gutter-pct: 0.07;
    --spacing-top-pct: 0.15;
    --spacing-bottom-pct: 0.07;
    --spacing-title-y-pct: 0.055;
    --accent-1: #1d4ed8;
    --accent-2: #2563eb;
    --accent-3: #4f46e5;
    --accent-4: #6d28d9;
    --accent-5: #0369a1;
    --accent-6: #c2410c;
}
:root[data-theme="dark"] {
    --background: #0f172a;
    --panel: #1e293b;
    --primary-text: #f1f5f9;
    --muted-text: #94a3b8;
    --inverse-text: #0f172a;
    --border: #334155;
    --shadow-color: #000000;
    --icon-pad-bg: #1e293b;
    --art-glow: #7dd3fc;
    --art-glow-opacity: 0.18;
    --art-sheen: #ffffff;
    --art-sheen-opacity: 0.18;
    --art-shadow: #000000;
    --art-shadow-opacity: 0.28;
    --art-muted-line: #64748b;
    --art-panel-tint: #1e293b;
    --semantic-risk: #f87171;
    --semantic-warning: #fb923c;
    --semantic-uncertain: #fbbf24;
    --semantic-evidence: #60a5fa;
    --semantic-claim: #c084fc;
    --semantic-positive: #4ade80;
    --semantic-outcome: #22d3ee;
    --accent-1: #93c5fd;
    --accent-2: #60a5fa;
    --accent-3: #818cf8;
    --accent-4: #a78bfa;
    --accent-5: #38bdf8;
    --accent-6: #fb923c;
}
:root[data-theme="light"] {
    --background: #f8fafc;
    --panel: #ffffff;
    --primary-text: #0f172a;
    --muted-text: #64748b;
    --inverse-text: #ffffff;
    --border: #e2e8f0;
    --shadow-color: #000000;
    --icon-pad-bg: #1e293b;
    --art-glow: #0891b2;
    --art-glow-opacity: 0.10;
    --art-sheen: #ffffff;
    --art-sheen-opacity: 0.34;
    --art-shadow: #0f172a;
    --art-shadow-opacity: 0.14;
    --art-muted-line: #94a3b8;
    --art-panel-tint: #f1f5f9;
    --semantic-risk: #b91c1c;
    --semantic-warning: #c2410c;
    --semantic-uncertain: #a16207;
    --semantic-evidence: #1d4ed8;
    --semantic-claim: #6d28d9;
    --semantic-positive: #15803d;
    --semantic-outcome: #0e7490;
    --accent-1: #1d4ed8;
    --accent-2: #2563eb;
    --accent-3: #4f46e5;
    --accent-4: #6d28d9;
    --accent-5: #0369a1;
    --accent-6: #c2410c;
}</style>
  <rect x="0" y="0" width="1.92E+3" height="1.08E+3" fill="#252a34" stroke="none" id="programmatic_background"/>
  <line id="HEADER_DECOR" x1="960.0" x2="1080.0" y1="127.0" y2="127.0" stroke="var(--accent-1)" stroke-width="6" stroke-linecap="round"/>
  <defs>
    <pattern id="svga92b29a8-napkin-hatch" patternUnits="userSpaceOnUse" width="12" height="12">
      <path d="M -3 12 L 12 -3 M 0 15 L 15 0" fill="none" stroke="var(--primary-text)" stroke-width="1" stroke-opacity="0.05"/>
    </pattern>
    <filter id="svga92b29a8-shadow" x="-30%" y="-30%" width="160%" height="160%">
      <feDropShadow dx="0" dy="3" stdDeviation="6" flood-color="#000000" flood-opacity="0.10"/>
      <feDropShadow dx="0" dy="8" stdDeviation="12" flood-color="#000000" flood-opacity="0.16"/>
    </filter>
    <radialGradient id="svga92b29a8-universal-edge-vignette" cx="50%" cy="50%" r="72%">
      <stop offset="0%" stop-color="var(--background)" stop-opacity="0"/>
      <stop offset="72%" stop-color="var(--background)" stop-opacity="0.12"/>
      <stop offset="100%" stop-color="var(--primary-text)" stop-opacity="0.08"/>
    </radialGradient>
    <linearGradient id="svga92b29a8-universal-surface-sheen" x1="0%" y1="0%" x2="100%" y2="100%">
      <stop offset="0%" stop-color="var(--art-sheen)" stop-opacity="var(--art-sheen-opacity)"/>
      <stop offset="46%" stop-color="var(--art-sheen)" stop-opacity="0.035"/>
      <stop offset="100%" stop-color="var(--art-panel-tint)" stop-opacity="0.14"/>
    </linearGradient>
    <radialGradient id="svga92b29a8-universal-icon-aura" cx="50%" cy="42%" r="64%">
      <stop offset="0%" stop-color="var(--art-glow)" stop-opacity="var(--art-glow-opacity)"/>
      <stop offset="100%" stop-color="var(--background)" stop-opacity="0"/>
    </radialGradient>
    <filter id="svga92b29a8-text-glow" x="-20%" y="-20%" width="140%" height="140%">
      <feDropShadow dx="0" dy="0" stdDeviation="2" flood-color="#000000" flood-opacity="0.4"/>
    </filter>
    <marker id="svga92b29a8-arrowhead" markerWidth="10" markerHeight="7" refX="9" refY="3.5" orient="auto" markerUnits="strokeWidth">
      <polygon points="0 0, 10 3.5, 0 7" fill="var(--muted-text)" opacity="0.6"/>
    </marker>
  </defs>
  <rect width="100%" height="100%" fill="var(--background)" id="CANVAS_BG"/>
  <rect width="100%" height="100%" fill="url(#svga92b29a8-napkin-hatch)"/>
  <rect id="UNIVERSAL_EDGE_VIGNETTE" width="100%" height="100%" fill="url(#svga92b29a8-universal-edge-vignette)" opacity="0.62"/>
  <text id="TITLE" x="960.0" y="59" text-anchor="middle" font-size="60" font-weight="800" fill="#0f172a" style="font-size: 69px; font-family: 'Segoe UI Variable Display', 'Aptos Display', 'Inter', 'Segoe UI', Helvetica, Arial, sans-serif; font-weight: 800; font-kerning: normal; font-feature-settings: &quot;kern&quot; 1, &quot;liga&quot; 1; letter-spacing:-1.2px;" data-final-font-size="69">
    <tspan x="960.0" dy="70.47px">UFOCAT Record Identification Fields</tspan>
  </text>
  <rect id="TITLE_FRAME" x="134" y="54" width="1652" height="100" fill="none"/>
  <rect x="150" y="150" width="1620" height="850" rx="40" fill="var(--panel)" fill-opacity="0.18" stroke="var(--muted-text)" stroke-width="2" opacity="0.90"/>
  <line x1="360" y1="212.0" x2="360" y2="938.0" stroke="var(--muted-text)" stroke-width="18" stroke-linecap="round" opacity="0.18"/>
  <line x1="360" y1="212.0" x2="360" y2="938.0" stroke="var(--border)" stroke-width="3" stroke-linecap="round" opacity="0.72"/>
  <g id="DIAGRAM_MAIN">
    <g filter="url(#svga92b29a8-shadow)">
      <line x1="404.0" y1="240.0" x2="420.0" y2="240.0" stroke="var(--accent-1)" stroke-width="5" opacity="0.76" stroke-linecap="round"/>
      <rect id="ITEM_1_BG" x="420.0" y="174.0" width="1085" height="152" rx="22" fill="var(--panel)" fill-opacity="0.97" stroke="var(--accent-1)" stroke-width="2.5"/>
      <rect x="420.0" y="174.0" width="1085" height="152" rx="16" fill="url(#svga92b29a8-universal-surface-sheen)" opacity="0.88"/>
      <rect x="420.0" y="174.0" width="14" height="132" rx="7" fill="var(--accent-1)" fill-opacity="0.90"/>
      <circle id="ITEM_1_PAD" cx="360" cy="240.0" r="46" fill="var(--icon-pad-bg)" opacity="1" fill-opacity="0.9" stroke-width="2" stroke="var(--accent-1)" stroke-opacity="0.72" data-badge-layer="pad"/>
      <circle id="ITEM_1_PAD_INNER" cx="360" cy="240.0" r="35.88" fill="var(--accent-1)" fill-opacity="0.12" stroke="none" data-badge-layer="tint"/>
      <circle cx="360" cy="240.0" r="38" fill="none" stroke="var(--accent-1)" stroke-width="3" stroke-dasharray="6 4" display="none" data-suppressed-decoration="redundant-badge-ring"/>
      <g id="ITEM_1_ICON" transform="translate(324, 204.0)" data-icon-size="72" stroke-linecap="round" stroke-linejoin="round" data-badge-treatment="clean">
        <g transform="translate(-6.666666666666666,-6.666666666666664) scale(3.5555555555555554)" vector-effect="non-scaling-stroke" stroke-width="2.58" stroke-linecap="round" stroke-linejoin="round" stroke-opacity="1.0">
          <path d="M3 5v14" vector-effect="non-scaling-stroke" fill="none" stroke="#f1f5f9"/>
          <path d="M8 5v14" vector-effect="non-scaling-stroke" fill="none" stroke="#f1f5f9"/>
          <path d="M12 5v14" vector-effect="non-scaling-stroke" fill="none" stroke="#f1f5f9"/>
          <path d="M17 5v14" vector-effect="non-scaling-stroke" fill="none" stroke="#f1f5f9"/>
          <path d="M21 5v14" vector-effect="non-scaling-stroke" fill="none" stroke="#f1f5f9"/>
        </g>
      </g>
      <text id="ITEM_1_HEAD" x="500.0" y="192.0" text-anchor="start" font-weight="800" font-size="30" fill="var(--accent-1)" data-bg-id="ITEM_1_BG" fill-opacity="1.0" style="font-size: 31px; font-family: 'Segoe UI Variable Display', 'Aptos Display', 'Inter', 'Segoe UI', Helvetica, Arial, sans-serif; font-weight: 700; font-kerning: normal; font-feature-settings: &quot;kern&quot; 1, &quot;liga&quot; 1; letter-spacing:-0.4px;" data-final-font-size="31">
        <tspan x="500.0" dy="27.40px">Unique Identifier</tspan>
      </text>
      <rect id="ITEM_1_HEAD_FRAME" x="500" y="192.0" width="760" height="32" fill="none"/>
      <text id="ITEM_1_BODY" x="500.0" y="230.0" text-anchor="start" font-size="24" fill="var(--primary-text)" data-bg-id="ITEM_1_BG" style="font-size: 23px; font-family: 'Segoe UI Variable Text', 'Aptos', 'Inter', 'Segoe UI', Helvetica, Arial, sans-serif; font-weight: 400; font-kerning: normal; font-feature-settings: &quot;kern&quot; 1, &quot;liga&quot; 1;" data-final-font-size="23">
        <tspan x="500.0" dy="30.10px">Permanent number assigned to every individual catalogue entry</tspan>
      </text>
      <rect id="ITEM_1_BODY_FRAME" x="500" y="230.0" width="860" height="72" fill="none"/>
      <text x="1460" y="216.0" text-anchor="end" font-size="18" font-weight="800" fill="var(--accent-1)" opacity="0.70">01</text>
    </g>
    <g filter="url(#svga92b29a8-shadow)">
      <line x1="404.0" y1="407.5" x2="420.0" y2="407.5" stroke="var(--accent-2)" stroke-width="5" opacity="0.76" stroke-linecap="round"/>
      <rect id="ITEM_2_BG" x="420.0" y="341.5" width="1085" height="152" rx="22" fill="var(--panel)" fill-opacity="0.97" stroke="var(--accent-2)" stroke-width="2.5"/>
      <rect x="420.0" y="341.5" width="1085" height="152" rx="16" fill="url(#svga92b29a8-universal-surface-sheen)" opacity="0.88"/>
      <rect x="420.0" y="341.5" width="14" height="132" rx="7" fill="var(--accent-2)" fill-opacity="0.90"/>
      <circle id="ITEM_2_PAD" cx="360" cy="407.5" r="46" fill="var(--icon-pad-bg)" opacity="1" fill-opacity="0.9" stroke-width="2" stroke="var(--accent-2)" stroke-opacity="0.72" data-badge-layer="pad"/>
      <circle id="ITEM_2_PAD_INNER" cx="360" cy="407.5" r="35.88" fill="var(--accent-2)" fill-opacity="0.12" stroke="none" data-badge-layer="tint"/>
      <circle cx="360" cy="407.5" r="38" fill="none" stroke="var(--accent-2)" stroke-width="3" stroke-dasharray="6 4" display="none" data-suppressed-decoration="redundant-badge-ring"/>
      <g id="ITEM_2_ICON" transform="translate(324, 371.5)" data-icon-size="72" stroke-linecap="round" stroke-linejoin="round" data-badge-treatment="clean">
        <g transform="translate(-3.050847457627119,-3.050847457627119) scale(3.2542372881355934)" vector-effect="non-scaling-stroke" stroke-width="2.58" stroke-linecap="round" stroke-linejoin="round" stroke-opacity="1.0">
          <path d="M3.85 8.62a4 4 0 0 1 4.78-4.77 4 4 0 0 1 6.74 0 4 4 0 0 1 4.78 4.78 4 4 0 0 1 0 6.74 4 4 0 0 1-4.77 4.78 4 4 0 0 1-6.75 0 4 4 0 0 1-4.78-4.77 4 4 0 0 1 0-6.76Z" vector-effect="non-scaling-stroke" fill="none" stroke="#f1f5f9"/>
        </g>
      </g>
      <text id="ITEM_2_HEAD" x="500.0" y="359.5" text-anchor="start" font-weight="800" font-size="30" fill="var(--accent-2)" data-bg-id="ITEM_2_BG" fill-opacity="1.0" style="font-size: 31px; font-family: 'Segoe UI Variable Display', 'Aptos Display', 'Inter', 'Segoe UI', Helvetica, Arial, sans-serif; font-weight: 700; font-kerning: normal; font-feature-settings: &quot;kern&quot; 1, &quot;liga&quot; 1; letter-spacing:-0.4px;" data-final-font-size="31">
        <tspan x="500.0" dy="27.40px">X2 Position Code</tspan>
      </text>
      <rect id="ITEM_2_HEAD_FRAME" x="500" y="359.5" width="760" height="32" fill="none"/>
      <text id="ITEM_2_BODY" x="500.0" y="397.5" text-anchor="start" font-size="24" fill="var(--primary-text)" data-bg-id="ITEM_2_BG" style="font-size: 23px; font-family: 'Segoe UI Variable Text', 'Aptos', 'Inter', 'Segoe UI', Helvetica, Arial, sans-serif; font-weight: 400; font-kerning: normal; font-feature-settings: &quot;kern&quot; 1, &quot;liga&quot; 1;" data-final-font-size="23">
        <tspan x="500.0" dy="30.10px">Ranks records from primary entries to distant secondary sources</tspan>
      </text>
      <rect id="ITEM_2_BODY_FRAME" x="500" y="397.5" width="860" height="72" fill="none"/>
      <text x="1460" y="383.5" text-anchor="end" font-size="18" font-weight="800" fill="var(--accent-2)" opacity="0.70">02</text>
    </g>
    <g filter="url(#svga92b29a8-shadow)">
      <line x1="404.0" y1="575.0" x2="420.0" y2="575.0" stroke="var(--accent-3)" stroke-width="5" opacity="0.76" stroke-linecap="round"/>
      <rect id="ITEM_3_BG" x="420.0" y="509.0" width="1085" height="152" rx="22" fill="var(--panel)" fill-opacity="0.97" stroke="var(--accent-3)" stroke-width="2.5"/>
      <rect x="420.0" y="509.0" width="1085" height="152" rx="16" fill="url(#svga92b29a8-universal-surface-sheen)" opacity="0.88"/>
      <rect x="420.0" y="509.0" width="14" height="132" rx="7" fill="var(--accent-3)" fill-opacity="0.90"/>
      <circle id="ITEM_3_PAD" cx="360" cy="575.0" r="46" fill="var(--icon-pad-bg)" opacity="1" fill-opacity="0.9" stroke-width="2" stroke="var(--accent-3)" stroke-opacity="0.72" data-badge-layer="pad"/>
      <circle id="ITEM_3_PAD_INNER" cx="360" cy="575.0" r="35.88" fill="var(--accent-3)" fill-opacity="0.12" stroke="none" data-badge-layer="tint"/>
      <circle cx="360" cy="575.0" r="38" fill="none" stroke="var(--accent-3)" stroke-width="3" stroke-dasharray="6 4" display="none" data-suppressed-decoration="redundant-badge-ring"/>
      <g id="ITEM_3_ICON" transform="translate(324, 539.0)" data-icon-size="72" stroke-linecap="round" stroke-linejoin="round" data-badge-treatment="clean">
        <g transform="translate(0.0,0.0) scale(5.142857142857143)" vector-effect="non-scaling-stroke" stroke-width="2.58" stroke-linecap="round" stroke-linejoin="round" stroke-opacity="1.0">
          <path id="Vector" fill="none" d="M6 11.5a5.5 5.5 0 1 0 0 -11 5.5 5.5 0 0 0 0 11Z" vector-effect="non-scaling-stroke" stroke="#f1f5f9"/>
          <path id="Vector_2" stroke="#f1f5f9" d="M6 11.5a5.5 5.5 0 1 0 0 -11 5.5 5.5 0 0 0 0 11Z" vector-effect="non-scaling-stroke" fill="none"/>
          <path id="Vector_3" stroke="#f1f5f9" d="M13.5 13.5 10 10" vector-effect="non-scaling-stroke" fill="none"/>
        </g>
      </g>
      <text id="ITEM_3_HEAD" x="500.0" y="527.0" text-anchor="start" font-weight="800" font-size="30" fill="var(--accent-3)" data-bg-id="ITEM_3_BG" fill-opacity="1.0" style="font-size: 31px; font-family: 'Segoe UI Variable Display', 'Aptos Display', 'Inter', 'Segoe UI', Helvetica, Arial, sans-serif; font-weight: 700; font-kerning: normal; font-feature-settings: &quot;kern&quot; 1, &quot;liga&quot; 1; letter-spacing:-0.4px;" data-final-font-size="31">
        <tspan x="500.0" dy="27.40px">SOURCE Field</tspan>
      </text>
      <rect id="ITEM_3_HEAD_FRAME" x="500" y="527.0" width="760" height="32" fill="none"/>
      <text id="ITEM_3_BODY" x="500.0" y="565.0" text-anchor="start" font-size="24" fill="var(--primary-text)" data-bg-id="ITEM_3_BG" style="font-size: 23px; font-family: 'Segoe UI Variable Text', 'Aptos', 'Inter', 'Segoe UI', Helvetica, Arial, sans-serif; font-weight: 400; font-kerning: normal; font-feature-settings: &quot;kern&quot; 1, &quot;liga&quot; 1;" data-final-font-size="23">
        <tspan x="500.0" dy="30.10px">Identifies the direct item used by the data base coder</tspan>
      </text>
      <rect id="ITEM_3_BODY_FRAME" x="500" y="565.0" width="860" height="72" fill="none"/>
      <text x="1460" y="551.0" text-anchor="end" font-size="18" font-weight="800" fill="var(--accent-3)" opacity="0.70">03</text>
    </g>
    <g filter="url(#svga92b29a8-shadow)">
      <line x1="404.0" y1="742.5" x2="420.0" y2="742.5" stroke="var(--accent-4)" stroke-width="5" opacity="0.76" stroke-linecap="round"/>
      <rect id="ITEM_4_BG" x="420.0" y="676.5" width="1085" height="152" rx="22" fill="var(--panel)" fill-opacity="0.97" stroke="var(--accent-4)" stroke-width="2.5"/>
      <rect x="420.0" y="676.5" width="1085" height="152" rx="16" fill="url(#svga92b29a8-universal-surface-sheen)" opacity="0.88"/>
      <rect x="420.0" y="676.5" width="14" height="132" rx="7" fill="var(--accent-4)" fill-opacity="0.90"/>
      <circle id="ITEM_4_PAD" cx="360" cy="742.5" r="46" fill="var(--icon-pad-bg)" opacity="1" fill-opacity="0.9" stroke-width="2" stroke="var(--accent-1)" stroke-opacity="0.72" data-badge-layer="pad"/>
      <circle id="ITEM_4_PAD_INNER" cx="360" cy="742.5" r="35.88" fill="var(--accent-1)" fill-opacity="0.12" stroke="none" data-badge-layer="tint"/>
      <circle cx="360" cy="742.5" r="38" fill="none" stroke="var(--accent-4)" stroke-width="3" stroke-dasharray="6 4" display="none" data-suppressed-decoration="redundant-badge-ring"/>
      <g id="ITEM_4_ICON" transform="translate(324, 706.5)" data-icon-size="72" stroke-linecap="round" stroke-linejoin="round" data-badge-treatment="clean">
        <g transform="translate(-2.3801652892561984,-2.3801652892561984) scale(0.1487603305785124)" vector-effect="non-scaling-stroke" fill="#f1f5f9" fill-opacity="1.0" stroke="none">
          <path fill="#f1f5f9" d="M257.625 16.75c-132.32 0-239.78 107.46-239.78 239.78s107.46 239.783 239.78 239.783s239.78-107.462 239.78-239.782s-107.46-239.78-239.78-239.78zm0 17.906c58.24 0 111.19 22.37 150.75 59c-53.35-22.728-121.28 4.247-156.97-18.594c15.65 28.19 42.047 29.17 74.032 27.438c22.816 27.9 61.838 17.83 106.782 17a221 221 0 0 1 38.31 74.406c-23.755 6.825-72.6 4.008-92.374-.875c8.236 8.03 19.117 12.027 32.094 14.595c-48.222 1.067-94.365 5.457-124.375-11.688c8.84 14.213 20.115 23.206 33.28 28.625c-19.962-.433-38.48-3.21-54.905-11.093c26.83 30.444 69.098 30.62 114.47 26.28c31.063 11.3 66.71 13.98 100.717 12.375c.03 1.47.063 2.93.063 4.406c0 19.2-2.428 37.834-7 55.595c-9.933-2.477-20.396-4.745-31.313-6.78l6.907-25.44l-18.03-4.874l-7.377 27.126c-14.308-2.26-29.233-4.163-44.593-5.75l3.344-31.375l-18.594-2l-3.375 31.626c-17.664-1.49-35.795-2.55-54.095-3.22l1.375-34.623l-18.656-.75l-1.406 34.812c-11.082-.238-22.19-.33-33.282-.28c-6.816.03-13.623.142-20.406.28l-1.5-37.72l-18.656.75l1.5 37.47a1198 1198 0 0 0-52.03 2.938l-4.033-37.688l-18.56 1.97l3.968 37.342c-14.93 1.44-29.428 3.16-43.22 5.157l-8.812-32.5l-18.03 4.906l8.28 30.5c-13.984 2.39-27.106 5.07-39.187 8.063c-4.562-17.742-6.97-36.357-6.97-55.532c0-30.21 6.03-58.983 16.938-85.217c45.587 15.482 137.805-12.232 208.062 16.468c-13.577-12.7-29.093-20.01-45.53-24.53c42.76 4.614 101.767-13.058 162.343 11.688c-13.39-12.526-28.787-19.426-44.97-23.97c-31.258-26.39-71.34-28.437-109.812-27.437c-36.037-25.845-82.634-23.168-124.31-21.655c40.3-41.466 96.683-67.22 159.155-67.22zm-4.22 275.125c10.84-.048 21.707.064 32.532.283l-1 24.75a1361 1361 0 0 0-50.156.312l-1-25.094c6.533-.125 13.063-.22 19.626-.25zm-38.31.783l1 25.156c-16.37.62-32.73 1.506-49.064 2.655l-2.686-25.094c16.482-1.244 33.504-2.136 50.75-2.717m89.53.03c17.893.626 35.6 1.606 52.813 3l-2.563 23.97a1245 1245 0 0 0-51.22-2.407zm-158.906 4.25l2.655 24.97a1691 1691 0 0 0-36.47 3.375l-6.436-23.75c12.845-1.773 26.32-3.3 40.25-4.594zm230.343.438c14.38 1.44 28.335 3.135 41.687 5.158l-6.063 22.343a1175 1175 0 0 0-38.156-3.81l2.533-23.69zm-289.188 6.97l6.22 23a1913 1913 0 0 0-36.845 4.594a221 221 0 0 1-8.063-19.844c11.808-2.878 24.784-5.464 38.688-7.75m349.375 1.28c10.804 1.955 21.1 4.112 30.813 6.5a221 221 0 0 1-7.813 19.283a1121 1121 0 0 0-28.844-4.22z" vector-effect="non-scaling-stroke" stroke="none"/>
        </g>
      </g>
      <text id="ITEM_4_HEAD" x="500.0" y="694.5" text-anchor="start" font-weight="800" font-size="30" fill="var(--accent-1)" data-bg-id="ITEM_4_BG" fill-opacity="1.0" style="font-size: 31px; font-family: 'Segoe UI Variable Display', 'Aptos Display', 'Inter', 'Segoe UI', Helvetica, Arial, sans-serif; font-weight: 700; font-kerning: normal; font-feature-settings: &quot;kern&quot; 1, &quot;liga&quot; 1; letter-spacing:-0.4px;" data-final-font-size="31">
        <tspan x="500.0" dy="27.40px">ISOURCE Field</tspan>
      </text>
      <rect id="ITEM_4_HEAD_FRAME" x="500" y="694.5" width="760" height="32" fill="none"/>
      <text id="ITEM_4_BODY" x="500.0" y="732.5" text-anchor="start" font-size="24" fill="var(--primary-text)" data-bg-id="ITEM_4_BG" style="font-size: 23px; font-family: 'Segoe UI Variable Text', 'Aptos', 'Inter', 'Segoe UI', Helvetica, Arial, sans-serif; font-weight: 400; font-kerning: normal; font-feature-settings: &quot;kern&quot; 1, &quot;liga&quot; 1;" data-final-font-size="23">
        <tspan x="500.0" dy="30.10px">Records the indirect source credited by the primary item</tspan>
      </text>
      <rect id="ITEM_4_BODY_FRAME" x="500" y="732.5" width="860" height="72" fill="none"/>
      <text x="1460" y="718.5" text-anchor="end" font-size="18" font-weight="800" fill="var(--accent-4)" opacity="0.70">04</text>
    </g>
    <g filter="url(#svga92b29a8-shadow)">
      <line x1="404.0" y1="910.0" x2="420.0" y2="910.0" stroke="var(--accent-5)" stroke-width="5" opacity="0.76" stroke-linecap="round"/>
      <rect id="ITEM_5_BG" x="420.0" y="844.0" width="1085" height="152" rx="22" fill="var(--panel)" fill-opacity="0.97" stroke="var(--accent-5)" stroke-width="2.5"/>
      <rect x="420.0" y="844.0" width="1085" height="152" rx="16" fill="url(#svga92b29a8-universal-surface-sheen)" opacity="0.88"/>
      <rect x="420.0" y="844.0" width="14" height="132" rx="7" fill="var(--accent-5)" fill-opacity="0.90"/>
      <circle id="ITEM_5_PAD" cx="360" cy="910.0" r="46" fill="var(--icon-pad-bg)" opacity="1" fill-opacity="0.9" stroke-width="2" stroke="var(--accent-2)" stroke-opacity="0.72" data-badge-layer="pad"/>
      <circle id="ITEM_5_PAD_INNER" cx="360" cy="910.0" r="35.88" fill="var(--accent-2)" fill-opacity="0.12" stroke="none" data-badge-layer="tint"/>
      <circle cx="360" cy="910.0" r="38" fill="none" stroke="var(--accent-5)" stroke-width="3" stroke-dasharray="6 4" display="none" data-suppressed-decoration="redundant-badge-ring"/>
      <g id="ITEM_5_ICON" transform="translate(324, 874.0)" data-icon-size="72" stroke-linecap="round" stroke-linejoin="round" data-badge-treatment="clean">
        <g transform="translate(-3.050847457627119,-3.050847457627124) scale(3.2542372881355934)" vector-effect="non-scaling-stroke" stroke-width="2.58" stroke-linecap="round" stroke-linejoin="round" stroke-opacity="1.0">
          <rect width="20" height="5" x="2" y="3" rx="1" vector-effect="non-scaling-stroke" fill="none" stroke="#f1f5f9"/>
          <path d="M4 8v11a2 2 0 0 0 2 2h12a2 2 0 0 0 2-2V8" vector-effect="non-scaling-stroke" fill="none" stroke="#f1f5f9"/>
          <path d="M10 12h4" vector-effect="non-scaling-stroke" fill="none" stroke="#f1f5f9"/>
        </g>
      </g>
      <text id="ITEM_5_HEAD" x="500.0" y="862.0" text-anchor="start" font-weight="800" font-size="30" fill="var(--accent-2)" data-bg-id="ITEM_5_BG" fill-opacity="1.0" style="font-size: 31px; font-family: 'Segoe UI Variable Display', 'Aptos Display', 'Inter', 'Segoe UI', Helvetica, Arial, sans-serif; font-weight: 700; font-kerning: normal; font-feature-settings: &quot;kern&quot; 1, &quot;liga&quot; 1; letter-spacing:-0.4px;" data-final-font-size="31">
        <tspan x="500.0" dy="27.40px">Location Data</tspan>
      </text>
      <rect id="ITEM_5_HEAD_FRAME" x="500" y="862.0" width="760" height="32" fill="none"/>
      <text id="ITEM_5_BODY" x="500.0" y="900.0" text-anchor="start" font-size="24" fill="var(--primary-text)" data-bg-id="ITEM_5_BG" style="font-size: 23px; font-family: 'Segoe UI Variable Text', 'Aptos', 'Inter', 'Segoe UI', Helvetica, Arial, sans-serif; font-weight: 400; font-kerning: normal; font-feature-settings: &quot;kern&quot; 1, &quot;liga&quot; 1;" data-final-font-size="23">
        <tspan x="500.0" dy="30.10px">Records page numbers or acquisition IDs for original documents</tspan>
      </text>
      <rect id="ITEM_5_BODY_FRAME" x="500" y="900.0" width="860" height="72" fill="none"/>
      <text x="1460" y="886.0" text-anchor="end" font-size="18" font-weight="800" fill="var(--accent-5)" opacity="0.70">05</text>
    </g>
  </g>
  <text id="SOURCE_NOTE" x="134.0" y="1058.0" fill="var(--muted-text)" opacity="0.88" style="font-family: var(--font-family); font-size: 20px;">Source: Introduction</text>
</svg>
